<?xml version="1.0" standalone="no"?>
<!DOCTYPE svg PUBLIC "-//W3C//DTD SVG 20010904//EN"
 "http://www.w3.org/TR/2001/REC-SVG-20010904/DTD/svg10.dtd">
<svg version="1.0" xmlns="http://www.w3.org/2000/svg"
 width="1254.000000pt" height="974.000000pt" viewBox="0 0 1254.000000 974.000000"
 preserveAspectRatio="xMidYMid meet">

<g transform="translate(0.000000,974.000000) scale(0.100000,-0.100000)"
fill="#000000" stroke="none">
<path d="M6190 9721 c-197 -42 -265 -306 -114 -440 53 -46 113 -65 192 -59 74
5 128 33 171 89 l34 44 -37 3 c-30 3 -41 -2 -63 -29 -48 -57 -127 -74 -200
-44 -77 32 -113 92 -113 185 0 125 70 200 186 200 53 0 92 -18 127 -60 20 -23
34 -30 62 -30 l36 0 -15 28 c-44 84 -164 135 -266 113z"/>
<path d="M8850 9660 c0 -47 -2 -50 -25 -50 -20 0 -25 -5 -25 -25 0 -20 5 -25
25 -25 l25 0 0 -117 c0 -151 10 -190 55 -209 19 -8 53 -14 75 -14 36 0 40 2
40 25 0 21 -5 25 -31 25 -66 0 -69 6 -69 155 l0 135 50 0 c47 0 50 2 50 25 0
23 -3 25 -50 25 l-50 0 0 50 0 50 -35 0 -35 0 0 -50z"/>
<path d="M6677 9606 c-104 -39 -156 -167 -112 -273 34 -82 96 -117 195 -111
80 4 127 34 161 100 30 59 24 159 -13 215 -45 68 -149 99 -231 69z m141 -62
c86 -56 81 -208 -9 -256 -75 -40 -154 -12 -184 66 -53 140 75 266 193 190z"/>
<path d="M7143 9595 c-41 -23 -43 -23 -43 -4 0 15 -7 19 -35 19 l-35 0 0 -195
0 -195 35 0 35 0 0 138 c0 154 6 173 67 198 47 20 97 9 128 -28 24 -28 25 -35
25 -169 l0 -139 30 0 30 0 0 149 c0 137 -2 151 -23 182 -46 69 -138 88 -214
44z"/>
<path d="M7615 9604 c-16 -9 -36 -23 -42 -32 -11 -14 -13 -12 -13 11 0 24 -4
27 -35 27 l-35 0 0 -195 0 -195 35 0 35 0 0 140 c0 140 0 140 29 172 25 28 34
32 81 32 47 0 56 -4 81 -32 29 -32 29 -32 29 -172 l0 -140 30 0 30 0 0 149 c0
137 -2 151 -23 182 -42 63 -135 88 -202 53z"/>
<path d="M8059 9610 c-48 -14 -78 -42 -105 -96 -23 -46 -26 -64 -21 -113 6
-71 26 -112 74 -148 30 -23 48 -28 107 -31 83 -4 127 15 164 68 30 44 28 50
-12 50 -26 0 -36 -5 -41 -20 -17 -54 -143 -67 -191 -19 -13 14 -28 39 -33 57
l-10 32 137 1 c188 2 176 -1 180 34 15 126 -118 225 -249 185z m137 -65 c27
-18 59 -79 49 -95 -4 -6 -60 -10 -126 -10 -113 0 -119 1 -119 20 0 87 116 137
196 85z"/>
<path d="M8508 9611 c-79 -26 -127 -97 -128 -187 0 -89 35 -155 102 -190 35
-18 141 -18 177 1 34 17 81 70 81 91 0 28 -50 15 -84 -21 -30 -31 -39 -35 -83
-35 -83 0 -133 57 -133 152 0 130 137 195 217 103 25 -29 37 -36 62 -33 l30 3
-16 34 c-33 66 -145 107 -225 82z"/>
<path d="M6726 8677 c-38 -27 2 -95 42 -71 24 16 28 55 6 71 -10 7 -21 13 -24
13 -3 0 -14 -6 -24 -13z"/>
<path d="M7160 8405 l0 -265 30 0 30 0 0 124 c0 67 5 137 11 154 18 52 79 79
141 62 62 -18 72 -45 76 -202 l4 -138 29 0 29 0 0 138 c0 123 -2 142 -22 182
-46 89 -170 108 -245 38 l-23 -21 0 96 0 97 -30 0 -30 0 0 -265z"/>
<path d="M5986 8613 c4 -16 35 -127 69 -248 l62 -220 36 -3 35 -3 26 83 c13
46 39 134 57 196 18 61 36 112 39 112 4 0 32 -87 62 -192 l55 -193 36 -3 36
-3 20 68 c46 155 121 418 121 425 0 5 -15 8 -33 8 l-32 0 -42 -167 c-55 -217
-64 -246 -69 -241 -3 4 -60 205 -104 366 -11 42 -12 43 -48 40 l-36 -3 -60
-209 c-39 -135 -62 -202 -66 -190 -4 11 -29 106 -55 212 l-49 192 -33 0 c-31
0 -33 -2 -27 -27z"/>
<path d="M8002 8447 c3 -190 3 -194 30 -234 33 -50 80 -73 152 -73 70 0 114
18 149 59 40 47 47 90 47 274 l0 167 -35 0 -35 0 0 -182 c0 -204 -5 -223 -60
-250 -46 -23 -87 -23 -127 2 -56 34 -61 56 -62 298 l-1 132 -31 0 -31 0 4
-193z"/>
<path d="M6910 8580 c0 -47 -2 -50 -25 -50 -20 0 -25 -5 -25 -25 0 -20 5 -25
24 -25 l25 0 3 -145 c4 -175 10 -186 108 -193 58 -4 60 -4 60 20 0 22 -5 26
-42 31 -62 8 -68 22 -68 164 l0 123 55 0 c52 0 55 1 55 24 0 23 -4 25 -52 28
l-53 3 -3 48 c-3 45 -5 47 -33 47 -28 0 -29 -1 -29 -50z"/>
<path d="M8553 8529 c-44 -13 -73 -53 -73 -102 0 -58 28 -83 127 -113 102 -31
126 -61 83 -104 -30 -30 -103 -28 -135 5 -14 13 -25 28 -25 33 0 4 -13 8 -30
8 -36 0 -40 -21 -9 -60 31 -39 74 -57 134 -57 88 0 145 44 145 111 0 47 -43
84 -128 109 -79 24 -102 41 -102 76 0 32 51 59 93 51 35 -7 67 -32 67 -53 0
-8 12 -13 35 -13 28 0 33 3 29 18 -28 86 -108 121 -211 91z"/>
<path d="M6720 8335 l0 -195 30 0 30 0 0 195 0 195 -30 0 -30 0 0 -195z"/>
<path d="M8852 8208 c-27 -27 -6 -68 35 -68 29 0 48 33 33 60 -12 22 -49 27
-68 8z"/>
<path d="M5450 5940 l0 -430 50 0 50 0 0 -847 0 -848 -49 -23 c-43 -20 -52
-30 -71 -78 l-22 -54 -100 0 c-91 0 -100 -2 -105 -20 -3 -11 -8 -20 -12 -20
-3 0 -22 -30 -41 -67 -19 -38 -38 -69 -42 -71 -5 -2 -8 -10 -8 -19 0 -8 -7
-21 -15 -29 -8 -9 -18 -27 -22 -42 -3 -15 -14 -34 -25 -43 -10 -9 -18 -24 -18
-33 0 -9 -4 -16 -10 -16 -5 0 -10 -9 -10 -20 0 -11 -4 -20 -10 -20 -5 0 -10
-9 -10 -20 0 -11 -4 -20 -10 -20 -5 0 -10 -7 -10 -15 0 -8 -4 -15 -10 -15 -5
0 -10 -9 -10 -20 0 -11 -4 -20 -8 -20 -5 0 -14 -16 -22 -35 -8 -19 -17 -35
-20 -35 -3 0 -12 -16 -20 -35 -8 -19 -17 -35 -22 -35 -4 0 -8 -9 -8 -19 0 -11
-3 -21 -7 -23 -10 -4 -42 -57 -50 -80 -3 -10 -9 -18 -14 -18 -5 0 -9 -9 -9
-20 0 -11 -4 -20 -10 -20 -5 0 -10 -9 -10 -19 0 -11 -3 -21 -8 -23 -4 -1 -34
-55 -66 -118 -33 -63 -63 -116 -68 -118 -4 -2 -8 -9 -8 -15 0 -7 -9 -23 -20
-37 -11 -14 -20 -31 -20 -38 0 -7 -12 -31 -27 -54 l-28 -42 -7 180 c-11 268
-25 463 -38 519 -6 28 -14 65 -17 83 -3 18 -9 35 -14 38 -5 3 -9 18 -9 34 0
16 -4 32 -10 35 -5 3 -10 15 -10 26 0 19 -4 28 -28 76 -7 13 -12 32 -12 42 0
11 -4 23 -10 26 -5 3 -10 16 -10 29 0 12 -5 27 -11 33 -6 6 -11 72 -11 175
l-1 165 -40 10 c-37 10 -44 9 -81 -16 -23 -15 -56 -34 -73 -42 -18 -8 -33 -17
-33 -21 0 -5 -7 -8 -15 -8 -8 0 -15 -4 -15 -8 0 -9 -27 -20 -159 -68 -125 -46
-141 -45 -93 4 58 59 74 148 47 254 -9 35 13 58 54 58 17 0 31 5 31 10 0 6 58
10 155 10 97 0 155 4 155 10 0 6 16 10 35 10 19 0 35 5 35 10 0 6 8 10 18 10
10 0 24 9 32 20 17 24 55 26 97 5 36 -18 62 -45 44 -45 -7 0 -9 -5 -6 -10 3
-5 17 -10 31 -10 13 0 24 -4 24 -10 0 -5 7 -10 15 -10 17 0 50 -30 78 -70 37
-53 13 38 -53 201 -55 135 -195 420 -221 447 -10 12 -19 25 -19 30 0 15 -68
82 -83 82 -9 0 -19 5 -22 10 -6 10 -125 15 -125 5 0 -7 24 -49 31 -55 14 -11
58 -108 63 -141 9 -46 -1 -57 -54 -60 l-44 -4 -12 75 c-7 41 -15 89 -19 105
l-6 30 16 -25 16 -25 -6 30 c-3 17 -6 36 -7 43 -1 6 -5 12 -10 12 -4 0 -8 6
-8 13 0 29 -72 87 -109 87 -11 0 -23 5 -26 10 -3 6 -15 10 -26 10 -10 0 -19 5
-19 10 0 6 -7 10 -15 10 -9 0 -26 10 -39 23 -13 12 -33 29 -45 37 -11 8 -21
19 -21 25 0 6 -9 17 -20 25 -11 8 -20 20 -20 27 0 7 -4 13 -10 13 -5 0 -10 11
-10 25 0 28 12 32 34 10 22 -23 26 -19 26 25 0 22 -4 40 -10 40 -5 0 -10 20
-10 45 0 41 2 45 28 50 56 12 107 29 114 39 4 6 9 8 12 5 3 -3 -8 -20 -24 -39
-17 -19 -30 -42 -29 -50 0 -10 2 -11 6 -2 2 6 9 12 15 12 11 0 68 58 68 70 0
4 9 18 21 31 11 13 23 36 26 51 3 16 9 28 14 28 5 0 9 7 9 15 0 8 9 35 21 60
l21 44 24 -24 c13 -13 24 -31 24 -40 0 -8 5 -15 10 -15 6 0 10 -10 10 -22 0
-32 28 -107 45 -125 13 -13 15 -10 16 24 0 21 3 47 6 58 12 51 -5 130 -36 160
-106 101 -200 168 -272 191 -39 13 -68 32 -105 69 -31 32 -62 54 -80 57 -16 3
-37 9 -47 13 -15 6 -18 4 -15 -11 2 -15 -4 -20 -29 -22 -18 -2 -33 -7 -33 -13
0 -5 -9 -9 -20 -9 -48 0 -149 -82 -179 -146 -7 -16 -17 -37 -22 -46 -12 -23
-11 -133 0 -172 6 -17 17 -56 27 -86 20 -67 41 -219 34 -248 -3 -11 -27 -45
-55 -74 -63 -67 -95 -125 -95 -174 0 -41 19 -105 35 -116 5 -4 6 -8 1 -8 -4 0
7 -14 25 -31 33 -30 34 -35 41 -128 3 -53 11 -114 16 -136 22 -90 44 -161 60
-199 15 -34 16 -47 6 -81 -24 -85 -34 -138 -40 -220 -4 -47 -11 -85 -15 -85
-5 0 -9 -20 -9 -44 0 -25 -4 -48 -10 -51 -5 -3 -10 -26 -10 -50 0 -24 -4 -47
-10 -50 -5 -3 -10 -27 -10 -52 0 -55 10 -50 21 9 13 70 19 101 29 138 5 19 14
64 20 100 25 139 54 260 62 260 5 0 6 6 2 13 -4 8 -4 8 2 2 20 -21 73 -153 84
-210 7 -33 16 -70 21 -83 11 -27 12 -126 2 -136 -12 -11 -33 -80 -33 -107 0
-15 -11 -46 -24 -70 -13 -24 -29 -61 -36 -81 -10 -32 -16 -38 -40 -38 -16 0
-32 5 -35 10 -3 5 -24 10 -46 10 -21 0 -39 5 -39 10 0 6 -14 10 -30 10 -46 0
-100 -35 -100 -64 0 -8 -4 -18 -10 -21 -5 -3 -10 -28 -10 -55 0 -27 -4 -52
-10 -55 -5 -3 -10 -24 -10 -46 0 -21 5 -39 10 -39 6 0 10 -5 10 -11 0 -24 31
-38 126 -58 133 -29 136 -30 130 -48 -5 -12 -21 -208 -40 -488 -28 -399 -31
-1059 -7 -1233 6 -37 15 -139 21 -227 13 -192 22 -230 53 -239 169 -50 274
-55 421 -20 l28 7 -6 -49 c-4 -27 -9 -70 -12 -96 -6 -45 -8 -48 -44 -58 -22
-6 -80 -11 -130 -11 -81 0 -90 -2 -90 -19 0 -10 5 -22 10 -25 6 -3 10 -17 10
-30 0 -13 5 -25 10 -27 16 -5 17 -251 2 -256 -7 -2 -12 -12 -12 -22 0 -10 -4
-22 -10 -25 -5 -3 -10 -28 -10 -56 l0 -49 -479 0 c-409 0 -484 2 -517 15 -64
26 -124 58 -124 66 0 4 -9 11 -21 14 -11 4 -38 24 -59 46 -29 30 -39 50 -44
86 -3 27 -10 75 -16 108 -30 178 -35 257 -34 535 0 307 5 355 54 550 7 25 14
65 17 90 3 25 9 49 14 55 5 5 9 25 9 45 0 20 4 40 9 45 10 11 19 73 27 183 3
39 10 72 15 72 5 0 9 32 9 71 0 41 -4 68 -9 64 -6 -3 -12 43 -15 112 -3 65
-10 174 -16 243 -6 69 -15 179 -20 245 -5 66 -15 172 -21 235 -6 63 -12 347
-15 630 -2 322 -8 518 -14 524 -6 6 -10 23 -10 38 0 15 -4 28 -10 28 -5 0 -10
11 -10 24 0 14 -4 28 -10 31 -5 3 -10 15 -10 26 0 23 1 23 -36 5 -16 -8 -50
-20 -76 -27 -56 -15 -125 -2 -195 36 l-43 24 0 -29 c0 -16 5 -32 10 -35 6 -3
10 -23 10 -44 0 -20 4 -41 9 -47 5 -5 12 -38 15 -74 13 -133 26 -298 31 -400
3 -58 10 -114 15 -125 5 -11 11 -54 14 -95 3 -41 11 -118 16 -170 19 -175 27
-383 25 -620 -3 -260 -7 -292 -66 -445 -10 -27 -19 -62 -19 -77 0 -15 -4 -30
-10 -33 -5 -3 -10 -19 -10 -35 0 -16 -4 -31 -9 -34 -9 -6 -18 -49 -27 -129 -3
-26 -10 -47 -15 -47 -5 0 -9 -22 -9 -50 0 -27 -4 -50 -10 -50 -5 0 -10 -20
-10 -45 0 -25 -4 -45 -10 -45 -5 0 -10 -20 -10 -44 0 -25 -5 -48 -10 -51 -6
-3 -10 -31 -10 -61 0 -34 -4 -53 -10 -49 -6 4 -10 -17 -10 -54 0 -34 -4 -61
-10 -61 -5 0 -10 -18 -10 -39 l0 -39 -37 4 c-78 9 -170 35 -230 66 -29 14 -44
2 -62 -49 -7 -21 -23 -58 -34 -83 -28 -62 -67 -204 -88 -320 -25 -137 -31
-210 -36 -417 -2 -131 -8 -223 -14 -223 -5 0 -9 -9 -9 -20 0 -11 -4 -20 -10
-20 -5 0 -10 -9 -10 -20 0 -11 -4 -20 -10 -20 -5 0 -10 -22 -10 -50 l0 -50
-375 0 c-327 0 -375 -2 -375 -15 0 -13 651 -15 5795 -15 4834 0 5794 2 5789
13 -5 15 -533 27 -1186 27 l-338 0 0 1810 0 1809 -159 -1 c-88 0 -164 3 -169
6 -6 3 -22 26 -36 50 l-26 45 2 873 3 873 93 3 92 3 0 429 0 430 -2490 0
-2490 0 0 -430z m1444 384 c14 -5 16 -29 16 -161 0 -120 3 -158 14 -169 20
-19 26 -18 26 6 0 11 5 20 10 20 6 0 10 9 10 20 0 11 5 20 10 20 6 0 10 11 10
25 0 14 5 25 10 25 6 0 10 5 10 11 0 19 28 39 54 39 24 0 26 -3 26 -49 0 -28
5 -53 10 -56 6 -3 10 -17 10 -31 0 -20 5 -24 28 -24 20 0 34 10 55 39 15 22
27 44 27 50 0 6 10 11 21 11 19 0 21 -4 14 -36 -3 -20 -12 -42 -18 -49 -7 -7
-19 -22 -27 -34 -8 -11 -20 -21 -27 -21 -7 0 -13 -5 -13 -11 0 -6 -16 -9 -37
-7 -33 3 -41 9 -60 43 -12 22 -22 52 -22 67 -1 28 -21 51 -21 24 0 -9 -4 -16
-10 -16 -5 0 -10 -13 -10 -30 0 -16 -4 -30 -10 -30 -5 0 -10 -14 -10 -31 0
-17 -4 -28 -10 -24 -6 4 -10 -5 -10 -19 0 -14 -4 -26 -9 -26 -5 0 -11 -12 -13
-27 -2 -22 -9 -29 -30 -31 -23 -3 -28 1 -28 17 0 12 -4 21 -10 21 -5 0 -10 23
-10 50 0 51 -13 67 -25 30 -4 -11 -17 -32 -31 -45 -13 -13 -24 -29 -24 -36 0
-6 -14 -24 -31 -40 -17 -16 -28 -29 -25 -29 4 0 -4 -11 -18 -25 -30 -30 -86
-35 -86 -7 0 9 14 28 30 41 38 29 38 51 1 90 -34 36 -47 39 -56 11 -3 -11 -11
-20 -16 -20 -5 0 -8 -3 -8 -7 3 -21 -3 -33 -17 -33 -8 0 -12 -4 -9 -10 3 -5 0
-10 -7 -10 -7 0 -19 -9 -26 -20 -7 -11 -19 -20 -27 -20 -8 0 -15 -4 -15 -10 0
-5 -9 -10 -20 -10 -11 0 -20 -5 -20 -11 0 -6 -15 -9 -37 -7 -40 3 -83 36 -83
63 0 8 -4 15 -10 15 -6 0 -10 30 -10 70 0 40 4 70 10 70 6 0 10 7 10 15 0 16
18 51 37 72 16 17 71 17 89 -1 16 -16 19 -86 4 -86 -5 0 -10 -7 -10 -16 0 -9
-13 -29 -30 -44 -16 -15 -30 -35 -30 -43 0 -9 -6 -17 -12 -19 -18 -6 15 -38
39 -38 23 0 73 22 73 33 0 4 6 7 13 7 13 0 77 70 76 84 0 5 5 12 12 16 7 5 13
16 14 27 4 48 19 88 41 110 23 23 25 23 41 7 16 -15 16 -18 0 -46 -25 -43 -21
-65 17 -103 19 -18 36 -39 38 -46 6 -17 58 33 58 56 0 8 5 15 10 15 6 0 10 9
10 20 0 11 5 20 10 20 6 0 10 9 10 20 0 11 5 20 10 20 6 0 10 14 10 30 0 17 5
30 10 30 6 0 10 13 10 29 0 17 -4 33 -10 36 -14 9 -12 119 2 133 14 14 12 14
32 6z m-908 -239 c7 -16 -18 -45 -38 -45 -7 0 -45 -10 -84 -22 -76 -24 -94
-44 -94 -103 0 -57 41 -71 105 -35 35 20 105 28 105 12 0 -20 -34 -52 -56 -52
-13 0 -24 -4 -24 -10 0 -5 -9 -10 -20 -10 -11 0 -20 -4 -20 -10 0 -5 -9 -10
-20 -10 -11 0 -20 -4 -20 -10 0 -5 -7 -10 -15 -10 -11 0 -15 -13 -15 -54 0
-30 5 -58 10 -61 15 -9 12 -34 -5 -51 -13 -13 -18 -13 -40 3 -21 16 -24 26
-25 80 0 34 -4 65 -10 68 -6 4 -10 55 -10 120 0 81 -4 115 -12 117 -19 7 16
38 41 38 12 0 21 5 21 10 0 6 11 10 25 10 14 0 25 5 25 10 0 6 13 10 29 10 17
0 33 5 36 10 10 16 105 12 111 -5z m1394 13 c0 -2 14 -41 30 -88 16 -47 30
-95 30 -107 0 -13 5 -23 10 -23 6 0 10 9 10 20 0 11 5 20 10 20 6 0 10 14 10
30 0 17 5 30 10 30 6 0 10 14 10 30 0 17 5 30 10 30 6 0 10 11 10 24 0 25 16
36 56 36 20 0 24 -5 24 -30 0 -16 -4 -30 -10 -30 -5 0 -10 -11 -10 -25 0 -14
-4 -25 -10 -25 -5 0 -10 -11 -10 -25 0 -14 -4 -25 -10 -25 -5 0 -10 -13 -10
-30 0 -16 -4 -30 -10 -30 -5 0 -10 -13 -10 -30 0 -16 -4 -30 -10 -30 -5 0 -10
-7 -10 -16 0 -40 -67 -62 -77 -24 -3 11 -9 20 -14 20 -5 0 -9 10 -9 23 0 13
-4 27 -8 33 -5 5 -14 29 -21 54 -7 25 -17 53 -22 62 -5 10 -9 25 -9 33 0 8 -4
15 -9 15 -9 0 -21 60 -14 73 4 6 63 11 63 5z m488 -10 c18 -18 15 -48 -5 -49
-10 0 -44 0 -75 1 -69 2 -77 -2 -70 -35 4 -23 9 -25 56 -25 60 -1 86 -17 86
-54 0 -26 -1 -26 -76 -26 -65 0 -75 -2 -70 -16 3 -9 6 -22 6 -30 0 -11 17 -14
75 -14 71 0 75 -1 81 -25 11 -45 -9 -55 -111 -55 -52 0 -100 3 -109 6 -14 5
-16 30 -16 170 l0 164 108 0 c71 0 112 -4 120 -12z m266 -3 c20 -8 36 -22 36
-30 0 -8 5 -15 10 -15 16 0 11 -37 -6 -44 -28 -11 -43 -7 -68 19 -31 31 -72
32 -103 3 -19 -18 -23 -31 -23 -82 1 -81 13 -96 79 -96 44 0 51 3 51 20 0 11
5 20 10 20 6 0 10 5 10 10 0 6 -18 10 -40 10 -38 0 -40 2 -40 30 l0 30 70 0
70 0 0 -60 c0 -33 -4 -60 -10 -60 -5 0 -10 -7 -10 -16 0 -20 -24 -44 -44 -44
-9 0 -16 -4 -16 -10 0 -6 -27 -10 -60 -10 -33 0 -60 4 -60 10 0 6 -7 10 -16
10 -20 0 -44 24 -44 44 0 9 -4 16 -10 16 -6 0 -10 40 -10 100 0 55 4 100 9
100 5 0 12 8 15 18 3 9 16 22 28 28 34 17 130 16 172 -1z m334 -17 l-3 -33
-77 3 -78 4 0 -31 0 -31 65 0 c37 0 65 -4 65 -10 0 -5 7 -10 15 -10 16 0 19
-17 9 -44 -5 -13 -22 -16 -80 -16 l-74 0 0 -30 0 -30 80 0 c77 0 80 -1 86 -25
11 -46 -8 -55 -121 -55 -81 0 -104 3 -108 15 -9 21 -10 287 -2 308 6 15 22 17
117 17 l109 0 -3 -32z m292 2 c0 -17 -5 -30 -12 -31 -7 0 -29 -1 -48 -2 l-35
-2 -3 -137 -3 -138 -24 0 c-13 0 -27 6 -32 13 -4 6 -10 68 -13 137 l-5 125
-42 3 c-40 3 -43 5 -43 33 l0 29 130 0 130 0 0 -30z m180 10 c0 -11 5 -20 10
-20 6 0 10 -13 10 -30 0 -16 5 -30 10 -30 6 0 10 -9 10 -20 0 -11 5 -20 10
-20 6 0 10 -9 10 -20 0 -11 5 -20 10 -20 6 0 10 -13 10 -29 0 -16 4 -31 9 -33
5 -1 11 -23 13 -48 2 -36 0 -45 -14 -48 -21 -4 -53 24 -62 56 -7 20 -13 22
-77 22 -67 0 -69 -1 -69 -26 0 -33 -21 -54 -54 -54 -24 0 -26 4 -26 40 0 22 5
40 10 40 6 0 10 9 10 20 0 11 5 20 10 20 6 0 10 14 10 30 0 17 5 30 10 30 6 0
10 11 10 24 0 14 5 28 10 31 6 3 10 15 10 26 0 10 5 19 10 19 6 0 10 8 10 18
0 28 21 42 62 42 31 0 38 -4 38 -20z m376 -17 c32 -35 46 -83 24 -83 -5 0 -10
-13 -10 -30 0 -16 5 -30 10 -30 6 0 10 -20 10 -45 0 -47 -17 -74 -68 -102 -28
-17 -174 -17 -190 -1 -13 13 -18 309 -5 321 3 4 49 7 101 7 l94 0 34 -37z
m154 -93 l0 -130 80 0 80 0 0 -40 0 -40 -106 0 c-78 0 -109 4 -120 14 -11 11
-14 48 -14 164 0 161 0 160 53 161 l27 1 0 -130z m428 98 l3 -28 -74 0 c-40 0
-76 -2 -79 -5 -3 -3 -3 -17 0 -30 4 -23 9 -25 58 -25 31 0 54 -4 54 -11 0 -5
4 -8 9 -4 12 7 23 -28 15 -49 -5 -13 -20 -16 -76 -16 -60 0 -69 -2 -64 -16 3
-9 6 -22 6 -30 0 -11 17 -14 74 -14 65 0 74 -2 79 -20 3 -11 3 -29 0 -40 -5
-18 -14 -20 -112 -20 -70 0 -111 4 -119 12 -13 13 -18 309 -5 322 4 3 57 5
117 4 l111 -3 3 -27z m266 -1 c48 -45 48 -67 -2 -67 -26 0 -42 6 -52 20 -25
35 -90 23 -90 -16 0 -17 6 -24 20 -24 11 0 20 -4 20 -10 0 -5 18 -10 40 -10
22 0 40 -4 40 -10 0 -5 7 -10 16 -10 46 0 61 -90 22 -135 -12 -14 -30 -25 -40
-25 -10 0 -18 -4 -18 -10 0 -18 -82 -11 -132 12 -45 20 -48 24 -48 60 0 35 2
38 28 38 16 0 34 -8 42 -20 17 -24 93 -28 116 -6 19 20 18 26 -6 26 -11 0 -20
5 -20 10 0 6 -13 10 -30 10 -16 0 -30 5 -30 10 0 6 -11 10 -25 10 -14 0 -37
11 -50 25 -43 42 -29 135 19 135 9 0 16 5 16 10 0 6 28 10 64 10 58 0 67 -3
100 -33z m-3884 -103 c0 -18 -23 -44 -40 -44 -11 0 -81 -66 -80 -75 1 -3 -2
-27 -6 -53 -4 -26 -8 -59 -8 -74 -1 -15 -9 -35 -18 -44 -15 -15 -18 -15 -32
-1 -9 9 -16 22 -16 31 0 8 -4 18 -10 21 -5 3 -10 35 -10 70 0 35 -4 67 -10 70
-5 3 -10 22 -10 41 0 31 2 34 30 34 17 0 31 -4 31 -10 1 -5 3 -14 4 -20 1 -5
4 -25 5 -42 2 -25 4 -28 7 -10 2 12 9 22 14 22 5 0 9 7 9 15 0 16 32 51 66 72
29 18 74 16 74 -3z m3878 -1306 l2 -848 -535 0 c-518 0 -535 1 -545 19 -5 11
-10 32 -10 47 0 15 -4 43 -9 63 -6 20 -19 78 -31 129 -11 51 -37 141 -56 199
-26 76 -33 108 -25 116 14 14 15 197 1 197 -5 0 -10 9 -10 20 0 11 -4 20 -9
20 -5 0 -13 9 -16 21 -8 23 -101 119 -117 119 -14 0 -111 101 -125 130 -19 41
-24 78 -32 225 -8 139 -21 195 -48 195 -7 0 -13 5 -13 10 0 6 -7 10 -15 10 -8
0 -15 5 -15 10 0 6 -11 10 -25 10 -14 0 -25 5 -25 10 0 6 -13 10 -30 10 -16 0
-30 5 -30 10 0 6 -13 10 -30 10 -16 0 -30 4 -30 9 0 5 -26 12 -57 15 -32 4
-77 10 -101 13 -23 3 -53 2 -66 -1 -34 -8 -86 -60 -86 -85 0 -12 -5 -21 -11
-21 -7 0 -9 -14 -5 -42 4 -24 9 -62 12 -85 5 -34 10 -43 25 -43 14 0 19 7 19
30 0 17 5 30 10 30 6 0 10 18 10 40 0 22 5 40 10 40 6 0 10 7 10 15 0 19 45
67 54 58 3 -4 6 -14 6 -23 0 -9 9 -26 20 -38 11 -12 20 -26 20 -32 0 -14 86
-100 100 -100 5 0 10 -4 10 -10 0 -5 13 -10 29 -10 17 0 33 -4 36 -10 3 -5 16
-10 27 -10 20 0 20 -3 12 -57 -14 -89 -10 -263 6 -273 19 -12 5 -26 -53 -54
-65 -31 -134 -41 -166 -24 -23 12 -24 17 -22 96 l2 82 -29 0 c-33 0 -72 29
-72 54 0 9 -4 16 -10 16 -5 0 -10 16 -10 35 0 19 -4 35 -10 35 -5 0 -10 16
-10 36 0 21 -4 33 -10 29 -5 -3 -10 -42 -10 -85 0 -43 5 -82 10 -85 6 -3 10
-26 10 -51 0 -24 5 -44 10 -44 6 0 10 -9 10 -20 0 -11 5 -20 10 -20 6 0 10 -7
10 -15 0 -8 17 -19 43 -26 23 -6 36 -14 30 -16 -7 -3 -13 -13 -13 -24 0 -10
-4 -19 -10 -19 -5 0 -10 -18 -10 -40 0 -22 -4 -40 -10 -40 -5 0 -10 -22 -10
-48 0 -26 -5 -53 -11 -59 -5 -5 -9 -30 -7 -54 l3 -44 143 -3 142 -3 0 43 c0
69 30 192 66 276 20 46 45 59 90 48 22 -6 25 -11 20 -34 -54 -251 -58 -403
-16 -522 32 -89 91 -170 125 -170 8 0 15 -4 15 -10 0 -5 9 -10 20 -10 11 0 20
-7 20 -15 0 -8 5 -15 10 -15 6 0 10 -7 10 -15 0 -8 5 -15 10 -15 6 0 10 -13
10 -30 0 -27 -3 -30 -30 -30 -16 0 -30 -4 -30 -10 0 -5 -13 -10 -29 -10 -17 0
-33 -4 -36 -10 -3 -5 -19 -10 -35 -10 -16 0 -32 -4 -35 -10 -3 -5 -17 -10 -31
-10 -13 0 -32 -4 -42 -9 -53 -27 -102 -31 -369 -31 -155 0 -288 3 -297 6 -14
5 -14 9 3 33 11 14 28 35 39 47 11 11 25 31 32 45 7 13 31 47 52 75 l38 51 0
156 c0 98 4 157 10 157 6 0 10 28 10 64 0 36 5 68 10 71 6 3 10 28 10 56 0 27
5 49 10 49 6 0 10 18 10 40 0 22 5 40 10 40 6 0 10 7 10 16 0 11 -6 14 -22 9
-32 -10 -100 -47 -119 -65 -18 -17 -89 -156 -89 -175 0 -7 -9 -37 -21 -66 -12
-30 -25 -63 -29 -74 -4 -11 -14 -40 -21 -65 -18 -65 -88 -212 -110 -232 -20
-19 -84 -24 -94 -8 -3 6 -16 10 -28 10 -20 0 -158 49 -199 71 -10 5 -25 9 -33
9 -9 0 -48 14 -87 30 -38 17 -72 30 -73 30 -7 0 -35 -64 -35 -81 0 -9 -5 -19
-12 -21 -21 -7 1 -56 32 -70 16 -7 30 -16 30 -20 0 -5 6 -8 13 -8 7 0 22 -8
33 -17 11 -10 31 -24 43 -31 24 -14 57 -33 129 -73 57 -32 73 -45 65 -52 -3
-4 -417 -7 -920 -7 l-913 0 0 850 0 850 2253 -2 2252 -3 3 -847z m-1975 -1560
c9 -13 2 -25 -38 -62 -26 -25 -52 -46 -57 -46 -5 0 -24 -15 -42 -32 -30 -30
-62 -52 -118 -83 -10 -5 -18 -13 -18 -17 0 -5 -7 -8 -16 -8 -9 0 -24 -8 -33
-18 -9 -10 -31 -25 -48 -33 -18 -7 -33 -17 -33 -21 0 -5 -8 -8 -18 -8 -10 0
-24 -9 -32 -20 -8 -11 -22 -20 -32 -20 -10 0 -18 -4 -18 -10 0 -5 -9 -10 -20
-10 -11 0 -20 -4 -20 -10 0 -5 -6 -10 -13 -10 -7 0 -22 -8 -33 -18 -11 -10
-32 -22 -46 -25 -15 -4 -34 -14 -42 -23 -9 -8 -16 -13 -16 -10 0 4 -19 -4 -42
-16 -58 -30 -125 -47 -137 -35 -14 14 3 50 44 94 19 20 35 41 35 45 0 4 5 8
11 8 6 0 24 14 39 30 15 17 34 30 40 30 7 0 20 8 29 18 9 9 28 23 44 31 15 8
27 18 27 23 0 4 5 8 11 8 6 0 31 14 56 30 24 17 46 30 49 30 3 0 31 18 63 39
32 22 85 54 117 71 33 17 66 35 74 40 8 5 44 20 80 34 73 29 137 31 153 4z
m-2703 -33 c0 -9 6 -12 16 -8 18 7 17 2 -10 -43 -17 -26 -25 -30 -55 -29 -43
3 -50 28 -8 33 26 3 40 32 16 32 -8 0 -8 5 1 15 16 19 40 19 40 0z m-243 -18
c-2 -7 5 -17 16 -23 20 -11 20 -12 -3 -19 -13 -4 -30 -14 -38 -21 -18 -18 -32
-18 -32 1 0 8 -9 15 -20 15 -11 0 -20 7 -20 15 0 8 9 15 20 15 11 0 20 -4 20
-10 0 -5 5 -10 10 -10 6 0 10 8 10 18 0 10 5 23 12 30 13 13 31 5 25 -11z
m1417 7 c9 -3 16 -14 16 -24 0 -27 19 -35 28 -12 6 16 11 18 32 10 15 -6 20
-12 13 -15 -7 -3 -13 -14 -13 -25 0 -14 -5 -18 -16 -14 -9 3 -27 6 -40 6 -17
0 -24 6 -24 19 0 11 -4 23 -10 26 -10 6 -14 35 -6 35 2 0 11 -3 20 -6z m2471
-14 c50 -10 105 -46 105 -69 0 -21 -27 -41 -54 -41 -14 0 -28 -4 -31 -10 -3
-5 -21 -10 -40 -10 -19 0 -37 -4 -40 -10 -3 -5 -21 -10 -40 -10 -19 0 -37 -4
-40 -10 -3 -5 -33 -10 -66 -10 -33 0 -59 -4 -59 -10 0 -6 -30 -10 -70 -10 -40
0 -70 -4 -70 -10 0 -6 -35 -10 -85 -10 -47 0 -85 -4 -85 -9 0 -11 -124 -19
-389 -27 -143 -4 -186 -2 -192 8 -8 12 21 48 39 48 5 0 36 25 68 55 32 31 70
58 84 61 14 3 36 9 50 14 14 5 50 11 80 15 30 3 84 10 120 15 333 43 595 54
715 30z m750 -28 c39 -6 96 -13 128 -17 46 -6 57 -11 57 -26 0 -11 -4 -19 -10
-19 -5 0 -10 -9 -10 -21 0 -11 -4 -17 -10 -14 -5 3 -10 -2 -10 -12 0 -10 -11
-31 -24 -46 -21 -24 -28 -27 -45 -18 -11 6 -42 11 -70 11 -27 0 -53 5 -56 10
-3 6 -17 10 -30 10 -13 0 -27 5 -30 10 -3 6 -17 10 -31 10 -13 0 -24 5 -24 10
0 6 -13 10 -29 10 -17 0 -33 5 -36 10 -3 6 -21 10 -40 10 -19 0 -37 5 -40 10
-3 6 -19 10 -35 10 -16 0 -32 5 -35 10 -3 6 -19 10 -36 10 -16 0 -29 3 -29 6
0 10 25 29 55 41 34 13 277 10 390 -5z m-3821 -67 c19 -15 19 -15 -1 -15 -11
0 -23 7 -27 15 -7 19 3 19 28 0z m1187 -10 c15 10 10 -12 -6 -25 -8 -7 -15
-18 -15 -25 0 -8 -15 -12 -40 -12 -22 0 -40 1 -40 3 0 18 17 34 37 34 19 0 24
4 19 17 -9 21 16 37 27 17 5 -8 12 -12 18 -9z m-1436 5 c3 -5 -3 -10 -14 -10
-12 0 -21 5 -21 10 0 6 6 10 14 10 8 0 18 -4 21 -10z m1181 -16 c-3 -8 1 -14
9 -14 8 0 15 -4 15 -10 0 -5 -5 -10 -11 -10 -6 0 -23 -9 -39 -20 -28 -20 -28
-20 -33 0 -3 14 -14 20 -31 20 -14 0 -26 5 -26 11 0 6 15 9 37 7 25 -2 38 2
41 12 6 19 23 30 35 23 4 -3 6 -11 3 -19z m-1576 -24 c0 -32 9 -37 27 -19 6 6
17 8 23 4 8 -5 9 -10 1 -18 -6 -6 -11 -20 -11 -31 0 -18 -1 -18 -18 -3 -10 10
-28 17 -40 17 -23 0 -29 14 -11 26 8 4 8 9 0 17 -18 18 -13 37 9 37 16 0 20
-7 20 -30z m224 4 c9 -3 16 -12 16 -20 0 -8 5 -14 10 -14 6 0 10 7 10 15 0 9
9 15 23 15 16 0 22 -6 23 -25 2 -20 -3 -25 -22 -25 -13 0 -24 -4 -24 -10 0
-21 -26 -8 -42 21 -26 45 -25 55 6 43z m4065 -25 c59 -19 81 -32 81 -46 0 -24
-27 -43 -59 -43 -17 0 -31 -4 -31 -10 0 -5 -21 -10 -46 -10 -27 0 -43 -4 -39
-10 4 -6 -13 -10 -44 -10 -28 0 -51 -4 -51 -10 0 -5 -11 -10 -25 -10 -14 0
-25 -4 -25 -10 0 -5 24 -10 54 -10 30 0 58 -4 61 -10 3 -5 22 -10 41 -10 19 0
34 -4 34 -10 0 -5 16 -10 35 -10 19 0 35 5 35 10 0 6 14 10 30 10 17 0 30 5
30 10 0 6 18 10 39 10 22 0 43 5 46 10 9 15 58 13 51 -2 -3 -7 -9 -21 -12 -30
-4 -10 -10 -18 -15 -18 -5 0 -9 -9 -9 -20 0 -11 -4 -20 -10 -20 -5 0 -10 -9
-10 -20 0 -11 -4 -20 -10 -20 -5 0 -10 -6 -10 -14 0 -8 -9 -18 -21 -21 -14 -5
-18 -10 -11 -17 10 -10 0 -40 -18 -58 -3 -3 -14 -21 -24 -42 -13 -23 -29 -38
-45 -42 -14 -3 -48 -10 -76 -15 -28 -5 -237 -10 -467 -10 -356 -1 -418 1 -418
13 0 8 9 18 20 21 11 3 20 11 20 16 0 5 8 9 18 9 10 0 22 4 28 9 16 16 107 44
169 53 147 20 238 30 339 36 72 5 111 11 113 19 5 15 -22 21 -109 26 -50 2
-68 -1 -68 -10 0 -10 -46 -13 -210 -13 -166 0 -217 -3 -239 -15 -30 -15 -80
-34 -173 -65 -51 -17 -111 -32 -238 -61 -25 -6 -63 -16 -85 -22 -49 -15 -458
-17 -465 -3 -12 23 190 107 295 123 17 2 39 8 50 13 11 5 36 11 55 15 19 3 58
10 85 16 28 5 76 12 108 16 31 3 60 9 63 14 3 5 27 9 55 9 52 0 129 19 129 32
0 5 9 8 20 8 11 0 20 5 20 10 0 6 7 10 16 10 9 0 32 17 51 38 29 31 31 38 16
41 -9 2 -19 -2 -21 -8 -2 -6 -12 -11 -23 -11 -10 0 -19 -4 -19 -10 0 -5 -10
-10 -23 -10 -13 0 -27 -4 -33 -8 -9 -8 -51 -21 -139 -44 -22 -5 -50 -14 -63
-19 -13 -5 -34 -9 -47 -9 -13 0 -27 -4 -30 -10 -3 -5 -18 -10 -32 -10 -15 0
-40 -4 -57 -9 -41 -13 -250 -48 -368 -62 -100 -12 -148 -8 -148 15 0 17 56 67
95 85 17 7 38 17 47 22 10 5 27 9 38 9 11 0 20 5 20 10 0 6 7 10 15 10 24 0
95 24 95 32 0 5 9 8 20 8 11 0 20 4 20 9 0 4 35 9 78 10 42 1 79 6 80 12 2 5
24 9 48 9 24 0 44 5 44 10 0 6 30 10 70 10 40 0 70 4 70 10 0 6 47 10 120 10
73 0 120 -4 120 -10 0 -5 5 -10 11 -10 5 0 7 5 4 10 -4 6 5 10 19 10 14 0 26
5 26 10 0 6 15 10 34 10 19 0 38 5 41 10 3 6 23 10 44 10 20 0 41 4 47 9 5 5
38 12 74 15 36 2 123 9 193 15 71 5 131 12 135 15 10 11 215 6 251 -5z m-4424
-29 c7 -23 25 -27 25 -5 0 17 9 19 30 5 11 -7 12 -12 3 -21 -6 -6 -9 -18 -6
-25 3 -9 -2 -14 -16 -14 -12 0 -21 6 -21 13 0 8 -3 8 -9 -2 -15 -23 -39 -6
-34 23 3 15 1 26 -6 26 -6 0 -11 5 -11 10 0 19 39 10 45 -10z m845 10 c0 -5 9
-10 20 -10 25 0 25 -11 1 -39 -11 -13 -22 -28 -24 -34 -3 -9 -10 -9 -26 1 -12
7 -21 8 -21 2 0 -5 -7 -10 -16 -10 -28 0 -11 35 19 38 28 3 36 17 15 25 -10 3
-10 7 1 20 15 19 31 22 31 7z m304 -2 c5 -10 7 -10 12 0 9 20 30 14 42 -13 16
-35 15 -38 -10 -32 -12 3 -30 2 -40 -4 -15 -8 -20 -5 -28 16 -5 14 -14 25 -20
25 -5 0 -10 5 -10 10 0 14 47 12 54 -2z m-539 -27 c-4 -13 1 -21 17 -26 22 -8
22 -8 -4 -12 -16 -2 -28 -9 -28 -14 0 -5 -9 -9 -20 -9 -11 0 -20 5 -20 10 0 6
-11 10 -25 10 -28 0 -32 12 -11 29 10 9 16 8 26 -4 15 -18 30 -11 30 16 0 13
7 19 21 19 15 0 19 -5 14 -19z m-47 -117 c14 -15 17 -15 27 0 7 9 20 16 30 16
15 0 16 -2 4 -17 -11 -13 -11 -17 -1 -20 23 -8 12 -23 -18 -23 -16 0 -30 -4
-30 -10 0 -23 -21 -7 -26 20 -4 17 -13 30 -20 30 -8 0 -14 5 -14 10 0 16 30
12 48 -6z m932 5 c0 -5 5 -7 10 -4 6 3 10 -1 10 -9 0 -9 5 -16 10 -16 6 0 10
7 10 15 0 17 2 18 24 9 9 -3 16 -15 16 -25 0 -10 5 -19 12 -19 6 0 8 -3 4 -7
-3 -4 -27 -8 -51 -9 -39 -3 -45 0 -45 16 0 11 -4 20 -10 20 -5 0 -10 9 -10 20
0 11 5 20 10 20 6 0 10 -5 10 -11z m-722 -8 c8 -4 12 -19 10 -32 -3 -22 -4
-22 -20 -5 -30 29 -22 58 10 37z m-1028 -29 c0 -4 -9 -8 -20 -8 -11 0 -20 4
-20 8 0 4 9 8 20 8 11 0 20 -4 20 -8z m2162 -32 c5 0 6 5 3 10 -3 6 -1 10 4
10 15 0 14 -15 -2 -29 -17 -14 -37 5 -36 34 0 19 1 19 11 -2 6 -13 15 -23 20
-23z m-1062 10 c0 -5 -4 -10 -10 -10 -5 0 -10 -12 -10 -27 l0 -27 -20 22 c-17
18 -19 25 -8 37 15 16 48 20 48 5z m830 -108 c0 -10 5 -23 12 -30 7 -7 8 -12
2 -12 -6 0 -21 -9 -34 -20 -27 -24 -40 -25 -40 -5 0 8 -9 15 -20 15 -11 0 -20
7 -20 15 0 18 37 20 42 3 3 -8 9 -8 24 0 10 6 13 12 7 12 -29 0 -10 36 20 39
4 1 7 -7 7 -17z m-1735 -32 c3 -5 -2 -18 -11 -28 -15 -18 -18 -18 -35 -4 -17
15 -17 16 4 28 28 15 34 16 42 4z m479 4 c9 -3 16 -12 16 -20 0 -22 17 -16 23
7 8 29 30 19 38 -18 5 -25 3 -30 -12 -26 -9 3 -26 0 -38 -7 -18 -9 -22 -8 -30
14 -6 13 -15 27 -21 31 -5 3 -8 11 -5 16 7 11 9 11 29 3z m-828 -29 c9 -8 20
-15 25 -15 5 0 9 7 9 15 0 8 9 15 20 15 11 0 20 -4 20 -10 0 -5 -5 -10 -11
-10 -8 0 -7 -5 1 -15 16 -20 13 -22 -35 -27 -32 -2 -40 0 -40 14 0 9 -9 24
-20 32 -19 14 -19 15 -2 16 10 0 25 -7 33 -15z m1204 -3 c0 -4 -9 -13 -20 -20
-17 -10 -23 -10 -36 3 -14 13 -13 15 5 15 11 0 23 5 26 10 7 11 25 4 25 -8z
m526 3 c9 -8 20 -15 25 -15 5 0 9 7 9 15 0 26 27 16 33 -12 3 -16 5 -29 4 -29
-1 -1 -18 -4 -38 -8 -33 -6 -37 -4 -43 19 -4 14 -11 25 -16 25 -6 0 -10 5 -10
10 0 15 19 12 36 -5z m-276 -445 c17 -18 38 -30 53 -30 14 0 27 -5 29 -10 2
-6 13 -2 25 10 12 11 29 20 38 20 8 0 15 5 15 10 0 6 11 10 25 10 14 0 25 5
25 10 0 6 44 10 111 10 102 0 113 -2 130 -22 24 -27 24 -39 -1 -66 -11 -12
-20 -26 -20 -31 0 -5 9 -13 20 -16 25 -8 25 -33 0 -65 -18 -23 -24 -25 -99
-23 -75 3 -81 1 -81 -17 0 -15 7 -20 29 -20 15 0 42 -5 60 -11 39 -14 41 -43
4 -76 -28 -24 -53 -26 -148 -11 -11 2 -21 -3 -22 -12 -4 -17 46 -40 85 -40 12
0 22 -4 22 -10 0 -5 6 -10 14 -10 7 0 16 -12 19 -27 6 -32 -11 -73 -30 -73 -7
0 -13 -4 -13 -10 0 -5 -9 -10 -20 -10 -11 0 -20 -4 -20 -10 0 -5 -20 -10 -45
-10 -25 0 -45 5 -45 10 0 6 -13 10 -30 10 -16 0 -30 5 -30 10 0 6 -9 10 -19
10 -11 0 -23 5 -26 10 -3 6 -14 10 -24 10 -9 0 -27 9 -39 20 -12 11 -25 20
-29 20 -4 0 -16 7 -27 15 -17 13 -16 15 17 29 28 11 34 19 30 35 -3 12 -9 21
-13 21 -11 0 -50 36 -50 46 0 5 -9 16 -20 24 -11 8 -20 19 -20 25 0 5 -9 21
-20 35 -11 14 -20 33 -20 43 0 12 -8 17 -30 17 -23 0 -35 -8 -52 -35 -19 -30
-27 -35 -48 -30 -14 4 -52 8 -85 9 -77 4 -120 13 -170 38 -22 11 -42 22 -44
24 -9 8 34 33 57 34 12 0 22 5 22 10 0 6 14 10 30 10 17 0 30 5 30 10 0 6 35
10 85 10 50 0 85 -4 85 -10 0 -5 9 -10 20 -10 12 0 20 -7 20 -16 0 -13 9 -14
55 -9 59 8 105 -10 105 -40 0 -10 10 -15 30 -15 17 0 30 -4 30 -10 0 -5 9 -10
20 -10 11 0 20 4 20 8 0 4 -9 14 -20 22 -11 8 -20 21 -20 30 0 9 -9 22 -20 30
-11 8 -20 22 -20 32 0 10 -4 18 -10 18 -5 0 -10 9 -10 20 0 32 -47 26 -80 -10
l-29 -31 -25 22 c-31 27 -33 39 -6 39 11 0 20 5 20 10 0 6 9 10 20 10 11 0 20
5 20 10 0 6 29 10 66 10 60 0 68 -3 94 -30z m-697 -82 c12 -6 27 -17 34 -24
14 -14 18 -45 6 -42 -5 1 -26 -4 -47 -10 -22 -6 -43 -9 -47 -6 -4 2 -10 0 -14
-6 -3 -5 -21 -17 -39 -25 -36 -17 -85 -11 -157 19 -33 14 -37 13 -51 -4 -21
-23 -14 -30 31 -30 90 -1 251 -60 251 -91 0 -11 5 -19 10 -19 6 0 10 -9 10
-20 0 -11 -4 -20 -9 -20 -5 0 -11 -9 -14 -20 -4 -18 0 -20 35 -20 30 0 41 -4
45 -18 3 -12 22 -23 54 -32 27 -8 49 -17 49 -22 0 -4 7 -8 15 -8 19 0 55 -20
76 -42 9 -10 20 -18 24 -18 12 0 55 -53 55 -67 0 -7 8 -13 18 -13 10 0 23 -5
30 -12 17 -17 15 4 -2 27 -20 28 -9 45 30 45 19 0 34 5 34 10 0 6 52 10 135
10 83 0 135 -4 135 -10 0 -5 18 -10 40 -10 22 0 40 -4 40 -10 0 -5 7 -10 15
-10 8 0 15 -4 15 -10 0 -5 6 -10 13 -10 14 0 37 -40 37 -64 0 -7 -11 -23 -25
-36 -14 -13 -25 -27 -25 -31 0 -3 20 -12 45 -18 25 -6 45 -14 45 -17 0 -3 -19
-41 -42 -85 -37 -70 -45 -79 -70 -79 -15 0 -28 5 -28 10 0 6 -9 10 -20 10 -11
0 -20 5 -20 10 0 6 -9 10 -20 10 -11 0 -20 4 -20 8 0 18 -50 33 -72 21 -11 -6
-36 -11 -54 -11 -33 0 -47 -19 -24 -33 29 -18 -1 -25 -107 -24 l-118 0 -26 32
c-15 18 -39 56 -54 85 -23 44 -32 52 -55 52 -53 0 -75 -66 -44 -129 9 -18 13
-35 10 -38 -3 -4 -6 -1 -6 5 0 7 -9 12 -20 12 -11 0 -20 5 -20 10 0 6 -9 10
-20 10 -11 0 -20 3 -20 8 0 4 -14 15 -30 24 -34 20 -39 38 -10 38 11 0 20 5
20 11 0 5 5 7 10 4 6 -3 10 -1 10 5 0 6 -22 33 -50 60 -27 27 -50 56 -50 64 0
9 -4 16 -9 16 -5 0 -20 23 -32 50 -12 28 -24 50 -26 50 -6 0 -47 -25 -60 -37
-7 -6 -13 -19 -13 -27 0 -20 -70 -22 -88 -4 -10 10 -15 10 -21 -1 -9 -13 -15
-13 -96 4 -24 5 -104 39 -124 52 -6 4 27 33 38 33 6 0 11 5 11 10 0 6 11 10
25 10 14 0 25 5 25 10 0 6 43 10 110 10 99 0 111 -2 122 -20 11 -17 24 -20 85
-20 66 0 73 -2 73 -20 0 -13 7 -20 20 -20 11 0 20 -4 20 -10 0 -5 13 -10 29
-10 16 0 31 -6 34 -12 2 -7 8 -10 12 -6 4 4 -6 21 -24 37 -17 16 -31 36 -31
45 0 9 -4 16 -10 16 -5 0 -10 7 -10 15 0 9 -9 25 -20 37 -11 12 -20 28 -20 35
0 37 -79 -16 -81 -54 0 -11 -3 -13 -6 -5 -2 6 -11 12 -19 12 -8 0 -14 5 -14
10 0 6 -7 10 -15 10 -8 0 -15 5 -15 10 0 6 -7 10 -15 10 -8 0 -15 5 -15 10 0
6 -9 10 -20 10 -11 0 -20 5 -20 10 0 6 -18 10 -39 10 -22 0 -43 5 -46 10 -3 6
-15 10 -26 10 -10 0 -19 4 -19 8 0 5 -12 15 -27 23 -58 29 -93 66 -93 97 0 28
-14 43 -60 67 -35 18 -65 43 -59 49 17 15 54 26 83 26 19 0 38 5 41 10 10 16
96 11 151 -8 27 -10 56 -16 64 -12 8 4 25 12 37 18 13 7 32 12 42 12 11 0 23
5 26 10 9 14 151 13 178 -2z m-941 -20 c66 -14 78 -23 78 -59 0 -16 -5 -29
-12 -29 -7 0 -4 -6 7 -12 43 -25 45 -48 6 -88 -26 -28 -33 -30 -105 -30 -44 0
-76 4 -76 10 0 6 -12 10 -26 10 l-27 0 27 25 28 25 -46 21 c-42 18 -46 23 -46
55 0 43 19 64 57 65 15 0 37 4 48 9 27 12 26 12 87 -2z m3191 -19 c32 -15 57
-60 57 -104 0 -36 0 -36 -32 -30 -33 7 -33 7 -13 -11 11 -11 29 -32 39 -48
l18 -29 15 30 c16 34 124 93 170 93 30 0 83 -44 83 -70 0 -9 4 -20 9 -25 15
-17 20 -125 5 -125 -7 0 -14 3 -16 8 -1 4 -29 17 -60 30 -56 23 -58 23 -87 6
-20 -12 -34 -31 -43 -61 -12 -43 -21 -52 -33 -33 -3 6 -17 10 -31 10 -13 0
-24 5 -24 10 0 6 -7 10 -15 10 -8 0 -29 14 -47 30 -17 17 -34 30 -37 30 -4 0
-15 14 -25 31 l-18 30 -29 -30 c-16 -17 -29 -35 -29 -41 0 -5 -6 -10 -13 -10
-17 0 -37 42 -37 75 0 22 -19 37 -21 18 -5 -51 -15 -62 -34 -37 -8 10 -15 15
-15 9 0 -5 -4 -5 -8 2 -4 6 -28 17 -53 24 -55 15 -109 -1 -109 -32 0 -10 -4
-21 -10 -24 -5 -3 -10 -19 -10 -35 0 -55 -6 -60 -80 -60 -38 0 -72 5 -75 10
-3 6 -17 10 -31 10 -13 0 -24 5 -24 10 0 6 -9 10 -20 10 -11 0 -20 4 -20 8 0
5 -12 15 -27 23 -29 15 -36 20 -66 56 -18 20 -18 22 10 47 31 29 87 36 97 11
8 -22 25 -18 37 9 6 13 33 38 60 56 43 28 57 31 104 28 41 -2 55 0 55 10 0 18
19 36 57 56 53 27 143 17 143 -15 0 -12 7 -19 20 -19 11 0 20 7 20 15 0 8 1
15 3 15 1 0 20 7 42 15 48 17 115 19 148 4z m-2021 -120 c9 -5 25 -9 35 -9 30
0 104 -46 165 -101 64 -59 39 -129 -46 -129 -25 0 -56 6 -68 13 -39 22 -144
131 -159 165 -7 17 -17 32 -20 32 -9 0 -18 37 -11 44 7 7 82 -4 104 -15z
m3481 -35 c35 -6 37 -8 37 -45 0 -22 -4 -39 -10 -39 -5 0 -10 -8 -10 -18 0
-10 -9 -24 -20 -32 -11 -8 -20 -22 -20 -32 0 -10 -4 -18 -10 -18 -5 0 -10 -9
-10 -20 0 -11 -4 -20 -10 -20 -5 0 -10 -9 -10 -20 0 -33 -38 -26 -42 7 -2 18
-10 29 -22 31 -15 3 -17 0 -11 -14 26 -63 10 -84 -33 -44 -12 11 -25 20 -31
20 -5 0 -11 5 -13 11 -2 6 -25 11 -52 12 -39 2 -51 -2 -67 -22 -10 -13 -19
-18 -19 -12 0 6 -7 11 -16 11 -9 0 -24 8 -33 18 -9 9 -28 23 -43 31 -16 8 -28
18 -28 23 0 9 -25 38 -33 38 -14 0 -47 -41 -47 -59 0 -12 4 -20 8 -17 4 2 9
-7 10 -22 1 -15 7 -28 12 -30 13 -5 13 -62 0 -62 -5 0 -10 -4 -10 -10 0 -5 9
-10 20 -10 11 0 20 5 20 10 0 6 16 10 36 10 27 0 37 -5 41 -20 5 -20 43 -29
43 -10 0 14 23 12 56 -4 25 -14 31 -13 71 11 28 16 58 25 83 25 54 -1 64 -9
40 -34 -11 -12 -20 -28 -20 -35 0 -7 -4 -13 -10 -13 -5 0 -10 -9 -10 -20 0
-11 -4 -20 -10 -20 -5 0 -10 -9 -10 -20 0 -11 -3 -20 -7 -20 -5 0 -13 -10 -19
-23 -36 -70 -47 -87 -60 -87 -44 0 -204 108 -204 138 0 19 -24 14 -43 -8 -18
-22 -24 -80 -7 -80 6 0 10 -11 10 -25 0 -14 5 -25 10 -25 6 0 10 -7 10 -15 0
-8 5 -15 10 -15 6 0 10 -7 10 -15 0 -13 -63 -15 -509 -15 l-509 0 -17 35 c-10
23 -14 47 -10 65 5 24 2 31 -22 46 -15 10 -46 35 -68 56 -39 36 -42 37 -63 22
-24 -17 -30 -62 -10 -82 21 -21 11 -68 -24 -106 l-33 -36 -298 0 c-225 0 -302
3 -311 12 -8 7 -23 20 -35 28 -11 8 -21 18 -21 23 0 5 -13 22 -30 37 -16 15
-30 37 -30 49 0 12 -4 21 -10 21 -5 0 -10 9 -10 20 0 11 5 20 10 20 6 0 10 8
10 17 0 9 3 13 6 10 4 -3 19 7 34 23 23 25 36 30 73 30 27 0 47 -5 50 -12 3
-9 8 -6 13 7 10 24 70 85 84 85 5 0 10 5 10 10 0 6 11 10 25 10 14 0 25 5 25
10 0 6 11 10 25 10 14 0 25 -4 25 -10 0 -18 45 -10 60 10 12 16 26 20 75 20
49 0 63 -4 75 -20 8 -11 20 -20 28 -20 9 0 11 -7 7 -21 -7 -20 -5 -21 21 -15
66 16 98 18 135 6 22 -7 39 -17 39 -22 0 -4 6 -8 14 -8 8 0 23 -11 34 -25 16
-20 26 -24 50 -19 25 5 31 2 37 -15 6 -21 35 -30 35 -11 0 19 83 90 105 90 8
0 15 5 15 10 0 6 5 10 10 10 6 0 10 -30 10 -71 0 -64 -2 -70 -17 -64 -35 15
-63 17 -63 6 0 -6 6 -11 13 -11 14 0 47 -35 47 -50 0 -6 9 -10 20 -10 13 0 20
7 20 18 0 19 61 82 80 82 5 0 10 5 10 10 0 6 11 10 25 10 23 0 25 -3 25 -50 0
-27 5 -50 10 -50 6 0 10 -9 10 -20 0 -11 5 -20 10 -20 6 0 10 -6 10 -13 0 -7
9 -19 20 -27 11 -8 20 -18 20 -23 0 -5 14 -22 31 -38 l30 -28 37 24 c45 30 97
42 115 26 11 -8 19 -3 38 22 36 49 33 54 -30 59 -35 2 -79 15 -113 31 -53 26
-148 106 -148 124 0 12 71 43 98 43 11 0 28 -10 36 -21 13 -20 16 -20 30 -6 9
9 16 21 16 27 0 14 25 40 39 40 6 0 11 5 11 10 0 6 11 10 25 10 14 0 25 5 25
10 0 6 11 10 25 10 22 0 24 3 19 30 -18 89 23 134 121 131 85 -2 85 -2 85 -23
0 -24 12 -23 30 2 8 12 26 20 42 20 15 0 30 5 33 10 3 6 23 10 44 10 29 0 43
-6 55 -22 46 -67 42 -66 84 -22 66 72 89 83 183 87 46 1 89 4 94 5 6 1 27 -1
48 -4z m-4312 -61 c32 -3 59 -10 59 -14 0 -5 9 -9 19 -9 26 0 59 -32 40 -39
-24 -8 -39 -29 -39 -55 0 -14 4 -26 9 -26 13 0 21 -27 15 -45 -4 -9 -19 -15
-35 -15 -16 0 -29 -4 -29 -10 0 -5 -9 -10 -20 -10 -11 0 -20 5 -20 10 0 6 -16
10 -35 10 -19 0 -35 -4 -35 -10 0 -5 5 -10 10 -10 6 0 31 -20 55 -45 36 -35
45 -52 45 -78 0 -26 -6 -36 -25 -45 -31 -14 -115 -16 -115 -3 0 5 -9 13 -21
16 -26 9 -125 108 -134 134 -3 12 -10 21 -15 21 -7 0 -25 39 -29 65 -1 6 20
12 46 15 l47 5 -42 28 c-51 33 -92 68 -92 78 0 4 8 10 18 15 30 13 186 33 225
28 21 -2 65 -7 98 -11z m184 -319 c19 -3 35 -10 35 -15 0 -5 11 -9 25 -9 14 0
25 -4 25 -10 0 -5 8 -10 18 -10 18 0 66 -36 114 -84 39 -40 39 -92 1 -107 -45
-18 -128 -5 -160 25 -15 14 -30 26 -33 26 -3 0 -12 -16 -19 -35 -8 -24 -19
-35 -32 -35 -10 0 -19 -4 -19 -10 0 -24 -198 -5 -220 21 -3 3 -16 9 -30 12
-30 7 -90 55 -90 71 0 35 296 58 335 26 9 -7 18 -11 20 -8 6 6 -18 58 -27 58
-5 0 -8 6 -8 13 0 6 -9 23 -20 37 -31 39 -26 53 15 46 19 -3 51 -9 70 -12z
m-560 -116 c63 -22 132 -63 173 -104 23 -24 42 -46 42 -49 0 -3 -52 -5 -115
-5 -111 0 -116 1 -145 27 -17 14 -30 32 -30 40 0 7 -4 13 -8 13 -5 0 -14 16
-22 35 -8 19 -17 35 -22 35 -4 0 -8 7 -8 16 0 13 8 15 53 9 28 -3 66 -11 82
-17z m-2675 -147 c0 -56 4 -103 10 -106 6 -3 10 -23 10 -43 1 -40 21 -127 33
-138 4 -4 7 -20 7 -36 0 -15 5 -28 10 -28 6 0 10 -14 10 -30 0 -17 4 -38 9
-48 5 -9 19 -48 31 -87 24 -74 58 -161 91 -232 10 -24 19 -48 19 -54 0 -6 7
-17 15 -26 9 -8 19 -28 22 -44 3 -16 9 -29 13 -29 17 0 21 -71 6 -102 -9 -17
-16 -43 -16 -58 l0 -27 -262 -7 c-144 -4 -264 -3 -267 2 -3 4 -26 14 -51 22
-25 8 -47 17 -50 20 -3 3 -17 11 -32 19 -15 8 -37 22 -47 33 -11 10 -23 18
-26 18 -15 0 -35 30 -35 52 1 33 47 162 59 166 6 2 11 11 11 20 0 44 162 412
181 412 5 0 9 7 9 16 0 8 7 22 15 30 8 9 18 27 22 42 3 15 14 34 25 43 10 9
18 24 18 33 0 9 5 16 10 16 6 0 10 9 10 20 0 11 5 20 10 20 6 0 10 9 10 20 0
11 5 20 10 20 6 0 10 7 10 15 0 8 5 15 10 15 6 0 10 9 10 20 0 11 5 20 10 20
6 0 10 9 10 20 0 11 3 20 8 20 4 0 13 14 20 30 23 52 32 33 32 -69z m2095
-281 c4 -6 63 -10 146 -10 l139 0 0 -45 c0 -25 5 -45 10 -45 6 0 10 -32 10
-76 0 -47 4 -73 10 -69 6 3 10 2 10 -4 0 -17 -49 -25 -159 -26 -82 0 -105 3
-111 15 -4 8 -18 38 -30 65 -12 28 -26 58 -31 67 -5 10 -9 26 -9 37 0 11 -4
21 -9 23 -5 2 -12 20 -16 41 -6 33 -5 37 13 37 12 0 24 -4 27 -10z"/>
<path d="M6380 6005 c0 -8 -4 -15 -10 -15 -5 0 -10 -11 -10 -25 0 -14 3 -25 6
-25 17 0 57 63 47 74 -12 12 -33 6 -33 -9z"/>
<path d="M8880 5970 c0 -16 -4 -30 -10 -30 -5 0 -10 -9 -10 -20 0 -17 7 -20
40 -20 22 0 40 5 40 10 0 6 -4 10 -10 10 -5 0 -10 7 -10 15 0 20 -22 65 -32
65 -4 0 -8 -13 -8 -30z"/>
<path d="M9167 6033 c-4 -3 -7 -17 -7 -30 0 -21 4 -23 55 -23 58 0 72 15 41
46 -15 14 -77 20 -89 7z"/>
<path d="M9160 5870 c0 -30 1 -30 54 -30 43 0 55 4 58 18 9 34 -2 42 -58 42
-53 0 -54 0 -54 -30z"/>
<path d="M6480 1974 c0 -12 43 -44 60 -44 9 0 17 7 17 15 0 10 -10 15 -29 15
-15 0 -28 5 -28 10 0 6 -4 10 -10 10 -5 0 -10 -3 -10 -6z"/>
<path d="M5822 1405 c-24 -53 -6 -115 33 -115 10 0 35 -5 54 -11 20 -6 48 -14
64 -19 30 -9 35 1 13 23 -15 14 -45 63 -73 120 -20 38 -74 39 -91 2z"/>
<path d="M6220 1300 c0 -5 5 -10 10 -10 6 0 10 5 10 10 0 6 -4 10 -10 10 -5 0
-10 -4 -10 -10z"/>
<path d="M8960 1405 c0 -19 27 -55 42 -55 23 0 24 29 1 46 -18 13 -43 19 -43
9z"/>
<path d="M4900 1620 c0 -5 5 -10 10 -10 6 0 10 5 10 10 0 6 -4 10 -10 10 -5 0
-10 -4 -10 -10z"/>
<path d="M1803 5493 c-18 -2 -33 -8 -33 -14 0 -5 -9 -9 -20 -9 -11 0 -20 -4
-20 -10 0 -5 -11 -10 -24 -10 -14 0 -28 -4 -31 -10 -3 -5 -19 -10 -35 -10 -16
0 -32 -4 -35 -10 -3 -5 -21 -10 -40 -10 -19 0 -37 -4 -40 -10 -3 -5 -15 -10
-26 -10 -10 0 -19 -4 -19 -10 0 -5 -7 -10 -15 -10 -20 0 -105 -85 -105 -105 0
-8 -4 -15 -10 -15 -5 0 -10 -13 -10 -30 0 -16 -4 -30 -10 -30 -6 0 -10 -46
-10 -119 0 -69 4 -122 10 -126 6 -3 10 -24 10 -46 0 -21 5 -39 10 -39 6 0 10
-18 10 -40 0 -22 5 -40 10 -40 6 0 10 -18 10 -40 0 -22 -4 -40 -10 -40 -5 0
-10 -7 -10 -16 0 -18 -23 -44 -40 -44 -16 0 -60 -47 -60 -65 0 -8 -4 -15 -10
-15 -6 0 -10 -45 -10 -115 0 -70 4 -115 10 -115 6 0 10 -11 10 -25 0 -14 5
-25 10 -25 6 0 10 -4 10 -10 0 -10 12 -26 74 -96 21 -24 43 -44 48 -44 5 0 18
-9 30 -20 29 -27 37 -25 43 8 24 112 76 262 100 285 53 51 96 77 129 77 14 0
28 5 31 10 3 6 22 10 42 10 40 0 102 19 118 35 17 18 35 54 35 70 0 8 5 15 10
15 6 0 10 20 10 44 0 25 5 48 10 51 6 3 10 24 10 46 0 21 -4 39 -10 39 -6 0
-10 26 -10 58 l0 58 53 10 c28 6 61 15 71 19 18 8 18 6 -3 -24 -31 -43 -20
-50 22 -15 51 43 137 188 137 230 0 39 58 -11 78 -67 6 -19 12 -47 12 -60 0
-54 37 -98 56 -68 11 18 5 184 -6 187 -6 2 -10 12 -10 23 0 10 -4 19 -10 19
-5 0 -10 9 -10 20 0 11 -4 20 -10 20 -5 0 -10 7 -10 15 0 17 -104 125 -120
125 -5 0 -10 5 -10 10 0 6 -7 10 -15 10 -8 0 -15 5 -15 10 0 6 -7 10 -15 10
-8 0 -15 5 -15 10 0 6 -9 10 -19 10 -11 0 -23 5 -26 10 -3 6 -24 10 -46 10
-30 0 -47 7 -69 29 -17 16 -47 31 -68 35 -38 6 -42 6 -99 -1z"/>
<path d="M2030 4870 c0 -5 5 -10 11 -10 5 0 7 5 4 10 -3 6 -8 10 -11 10 -2 0
-4 -4 -4 -10z"/>
<path d="M2883 4108 c-6 -13 -25 -70 -44 -128 -18 -58 -37 -110 -42 -117 -4
-6 -7 -24 -5 -39 3 -24 10 -29 68 -45 36 -9 75 -21 88 -24 18 -6 22 -3 22 13
0 11 6 23 13 25 8 4 9 8 1 14 -5 4 -18 26 -28 47 -14 31 -17 48 -10 75 9 35
10 36 57 36 42 0 47 2 47 22 0 12 5 25 10 28 15 9 12 44 -4 61 -8 8 -26 14
-40 14 -14 0 -26 5 -26 10 0 6 -11 10 -25 10 -14 0 -25 5 -25 10 0 20 -47 10
-57 -12z"/>
<path d="M3333 3415 c0 -27 2 -38 4 -22 2 15 2 37 0 50 -2 12 -4 0 -4 -28z"/>
</g>
</svg>
